<?xml version="1.0" standalone="no"?><svg xmlns="http://www.w3.org/2000/svg" viewBox="0 0 1440 320"><path fill="#00cba9" fill-opacity="1" d="M0,32L26.7,69.3C53.3,107,107,181,160,197.3C213.3,213,267,171,320,149.3C373.3,128,427,128,480,149.3C533.3,171,587,213,640,202.7C693.3,192,747,128,800,90.7C853.3,53,907,43,960,53.3C1013.3,64,1067,96,1120,101.3C1173.3,107,1227,85,1280,80C1333.3,75,1387,85,1413,90.7L1440,96L1440,320L1413.3,320C1386.7,320,1333,320,1280,320C1226.7,320,1173,320,1120,320C1066.7,320,1013,320,960,320C906.7,320,853,320,800,320C746.7,320,693,320,640,320C586.7,320,533,320,480,320C426.7,320,373,320,320,320C266.7,320,213,320,160,320C106.7,320,53,320,27,320L0,320Z"></path></svg>